<svg width="240" height="45" viewBox="0 0 240 45" fill="none" xmlns="http://www.w3.org/2000/svg">
<g id="Social Media">
<path id="Snapchat" d="M37.4707 29.8828C37.4707 29.4531 37.2559 29.1895 36.8262 29.0918C35.5176 28.7988 34.3652 28.2227 33.3691 27.3633C32.373 26.5039 31.5918 25.4492 31.0254 24.1992C30.8887 23.8281 30.8203 23.584 30.8203 23.4668C30.8203 23.1738 31.0107 22.9199 31.3916 22.7051C31.7725 22.4902 32.1924 22.3242 32.6514 22.207C33.1104 22.0898 33.5303 21.8896 33.9111 21.6064C34.292 21.3232 34.4824 20.9668 34.4824 20.5371C34.4824 20.166 34.3018 19.8584 33.9404 19.6143C33.5791 19.3701 33.2031 19.248 32.8125 19.248C32.5781 19.248 32.2656 19.3262 31.875 19.4824C31.4844 19.6387 31.1816 19.7168 30.9668 19.7168C30.8887 19.7168 30.7715 19.6973 30.6152 19.6582C30.7129 17.8027 30.7617 16.6895 30.7617 16.3184C30.7617 14.7754 30.5957 13.6621 30.2637 12.9785C29.5605 11.4551 28.5547 10.2686 27.2461 9.41895C25.9375 8.56934 24.4531 8.14453 22.793 8.14453C18.9062 8.14453 16.2207 9.75586 14.7363 12.9785C14.4043 13.6621 14.2383 14.7754 14.2383 16.3184C14.2383 16.6895 14.2871 17.8027 14.3848 19.6582C14.3066 19.6973 14.1699 19.7168 13.9746 19.7168C13.7402 19.7168 13.4277 19.6436 13.0371 19.4971C12.6465 19.3506 12.3535 19.2773 12.1582 19.2773C11.748 19.2773 11.3721 19.3945 11.0303 19.6289C10.6885 19.8633 10.5176 20.1758 10.5176 20.5664C10.5176 20.9766 10.708 21.3232 11.0889 21.6064C11.4697 21.8896 11.8896 22.0898 12.3486 22.207C12.8076 22.3242 13.2275 22.4902 13.6084 22.7051C13.9893 22.9199 14.1797 23.1738 14.1797 23.4668C14.1797 23.584 14.1113 23.8281 13.9746 24.1992C12.7246 26.8945 10.791 28.5254 8.17383 29.0918C7.74414 29.1895 7.5293 29.4531 7.5293 29.8828C7.5293 30.7812 8.86719 31.4453 11.543 31.875C11.582 31.9727 11.6406 32.2266 11.7188 32.6367C11.7969 33.0469 11.9092 33.3447 12.0557 33.5303C12.2021 33.7158 12.4316 33.8086 12.7441 33.8086C12.9785 33.8086 13.3447 33.7646 13.8428 33.6768C14.3408 33.5889 14.7266 33.5449 15 33.5449C15.6836 33.5449 16.3379 33.6914 16.9629 33.9844C17.5879 34.2773 18.1152 34.5947 18.5449 34.9365C18.9746 35.2783 19.5361 35.5957 20.2295 35.8887C20.9229 36.1816 21.6699 36.3281 22.4707 36.3281C23.3105 36.3281 24.082 36.1816 24.7852 35.8887C25.4883 35.5957 26.0498 35.2783 26.4697 34.9365C26.8896 34.5947 27.4121 34.2773 28.0371 33.9844C28.6621 33.6914 29.3164 33.5449 30 33.5449C30.2734 33.5449 30.6592 33.584 31.1572 33.6621C31.6553 33.7402 32.0312 33.7793 32.2852 33.7793C32.5977 33.7793 32.8223 33.6816 32.959 33.4863C33.0957 33.291 33.2031 32.998 33.2812 32.6074C33.3594 32.2168 33.418 31.9727 33.457 31.875C36.1328 31.4453 37.4707 30.7812 37.4707 29.8828ZM45 22.5C45 26.582 43.9941 30.3467 41.9824 33.7939C39.9707 37.2412 37.2412 39.9707 33.7939 41.9824C30.3467 43.9941 26.582 45 22.5 45C18.418 45 14.6533 43.9941 11.2061 41.9824C7.75879 39.9707 5.0293 37.2412 3.01758 33.7939C1.00586 30.3467 0 26.582 0 22.5C0 18.418 1.00586 14.6533 3.01758 11.2061C5.0293 7.75879 7.75879 5.0293 11.2061 3.01758C14.6533 1.00586 18.418 0 22.5 0C26.582 0 30.3467 1.00586 33.7939 3.01758C37.2412 5.0293 39.9707 7.75879 41.9824 11.2061C43.9941 14.6533 45 18.418 45 22.5Z" fill="black"/>
<path id="Facebook" d="M175 22.5564C175 10.1053 164.92 0 152.5 0C140.08 0 130 10.1053 130 22.5564C130 33.4737 137.74 42.5639 148 44.6617V29.3233H143.5V22.5564H148V16.9173C148 12.5639 151.532 9.02256 155.875 9.02256H161.5V15.7895H157C155.763 15.7895 154.75 16.8045 154.75 18.0451V22.5564H161.5V29.3233H154.75V45C166.112 43.8722 175 34.2632 175 22.5564Z" fill="black"/>
<path id="Instagram" d="M217.5 16.92C216.396 16.92 215.318 17.2473 214.4 17.8604C213.482 18.4735 212.767 19.345 212.345 20.3646C211.922 21.3842 211.812 22.5062 212.027 23.5886C212.243 24.671 212.774 25.6653 213.554 26.4457C214.335 27.226 215.329 27.7575 216.411 27.9728C217.494 28.1881 218.616 28.0776 219.635 27.6552C220.655 27.2329 221.526 26.5177 222.14 25.6001C222.753 24.6825 223.08 23.6036 223.08 22.5C223.08 21.7672 222.936 21.0416 222.655 20.3646C222.375 19.6876 221.964 19.0725 221.446 18.5543C220.928 18.0362 220.312 17.6252 219.635 17.3448C218.958 17.0643 218.233 16.92 217.5 16.92ZM239.842 11.4075C239.831 9.66996 239.511 7.94829 238.897 6.3225C238.446 5.13283 237.747 4.05246 236.847 3.15267C235.948 2.25287 234.867 1.55411 233.678 1.1025C232.052 0.489294 230.33 0.169337 228.592 0.1575C225.69 -1.50874e-07 224.835 0 217.5 0C210.165 0 209.31 -1.50874e-07 206.408 0.1575C204.67 0.169337 202.948 0.489294 201.322 1.1025C200.133 1.55411 199.052 2.25287 198.153 3.15267C197.253 4.05246 196.554 5.13283 196.102 6.3225C195.489 7.94829 195.169 9.66996 195.157 11.4075C195 14.31 195 15.165 195 22.5C195 29.835 195 30.69 195.157 33.5925C195.182 35.3362 195.501 37.0631 196.102 38.7C196.552 39.8842 197.25 40.9583 198.15 41.85C199.046 42.7552 200.129 43.4539 201.322 43.8975C202.948 44.5107 204.67 44.8307 206.408 44.8425C209.31 45 210.165 45 217.5 45C224.835 45 225.69 45 228.592 44.8425C230.33 44.8307 232.052 44.5107 233.678 43.8975C234.871 43.4539 235.954 42.7552 236.85 41.85C237.75 40.9583 238.448 39.8842 238.897 38.7C239.51 37.0662 239.83 35.3373 239.842 33.5925C240 30.69 240 29.835 240 22.5C240 15.165 240 14.31 239.842 11.4075ZM234.127 29.4075C234.055 30.796 233.759 32.1637 233.25 33.4575C232.813 34.5368 232.164 35.5172 231.341 36.3405C230.517 37.1638 229.537 37.8132 228.458 38.25C227.151 38.7306 225.776 38.9965 224.385 39.0375H210.615C209.224 38.9965 207.849 38.7306 206.543 38.25C205.427 37.8354 204.419 37.1739 203.595 36.315C202.78 35.5078 202.15 34.5327 201.75 33.4575C201.268 32.1528 201.009 30.7759 200.985 29.385V15.615C201.009 14.2241 201.268 12.8472 201.75 11.5425C202.165 10.4267 202.826 9.41912 203.685 8.595C204.496 7.78415 205.47 7.15521 206.543 6.75C207.849 6.26941 209.224 6.00347 210.615 5.9625H224.385C225.776 6.00347 227.151 6.26941 228.458 6.75C229.573 7.16463 230.581 7.82612 231.405 8.685C232.22 9.49218 232.85 10.4673 233.25 11.5425C233.731 12.8486 233.997 14.2239 234.038 15.615V22.5C234.038 27.135 234.195 27.6075 234.127 29.385V29.4075ZM230.528 12.6675C230.26 11.9407 229.837 11.2807 229.29 10.733C228.742 10.1853 228.082 9.76289 227.355 9.495C226.357 9.14909 225.306 8.98153 224.25 9H210.75C209.689 9.01037 208.637 9.20843 207.645 9.585C206.929 9.84073 206.276 10.2459 205.729 10.7735C205.182 11.3011 204.754 11.939 204.472 12.645C204.146 13.6471 203.986 14.6961 204 15.75V29.25C204.022 30.3102 204.22 31.3594 204.585 32.355C204.853 33.0818 205.275 33.7418 205.823 34.2895C206.371 34.8372 207.031 35.2596 207.757 35.5275C208.717 35.8806 209.728 36.078 210.75 36.1125H224.25C225.311 36.1021 226.363 35.9041 227.355 35.5275C228.082 35.2596 228.742 34.8372 229.29 34.2895C229.837 33.7418 230.26 33.0818 230.528 32.355C230.904 31.3626 231.102 30.3114 231.112 29.25V15.75C231.113 14.6875 230.915 13.6344 230.528 12.645V12.6675ZM217.5 31.095C216.372 31.095 215.256 30.8725 214.214 30.4403C213.173 30.0081 212.227 29.3746 211.43 28.5762C210.634 27.7778 210.003 26.8301 209.574 25.7875C209.144 24.7448 208.925 23.6276 208.927 22.5C208.928 20.7991 209.432 19.1365 210.378 17.7225C211.323 16.3086 212.667 15.207 214.239 14.5571C215.81 13.9073 217.54 13.7384 219.208 14.0718C220.875 14.4053 222.407 15.2261 223.608 16.4304C224.809 17.6347 225.626 19.1683 225.955 20.837C226.284 22.5058 226.111 24.2347 225.457 25.8048C224.803 27.3749 223.698 28.7157 222.281 29.6574C220.865 30.5992 219.201 31.0995 217.5 31.095ZM226.5 15.5925C226.003 15.5399 225.542 15.305 225.208 14.9332C224.873 14.5614 224.688 14.0789 224.688 13.5787C224.688 13.0786 224.873 12.5961 225.208 12.2243C225.542 11.8525 226.003 11.6176 226.5 11.565C226.997 11.6176 227.458 11.8525 227.792 12.2243C228.127 12.5961 228.312 13.0786 228.312 13.5787C228.312 14.0789 228.127 14.5614 227.792 14.9332C227.458 15.305 226.997 15.5399 226.5 15.5925Z" fill="black"/>
<path id="Linkedin" d="M106.786 0H68.2042C66.4364 0 65 1.45647 65 3.24442V41.7556C65 43.5435 66.4364 45 68.2042 45H106.786C108.554 45 110 43.5435 110 41.7556V3.24442C110 1.45647 108.554 0 106.786 0ZM78.6004 38.5714H71.9308V17.096H78.6105V38.5714H78.6004ZM75.2656 14.1629C73.1261 14.1629 71.3984 12.4252 71.3984 10.2958C71.3984 8.16629 73.1261 6.42857 75.2656 6.42857C77.3951 6.42857 79.1328 8.16629 79.1328 10.2958C79.1328 12.4353 77.4051 14.1629 75.2656 14.1629ZM103.602 38.5714H96.9319V28.125C96.9319 25.6339 96.8817 22.4297 93.4665 22.4297C89.9911 22.4297 89.4587 25.1417 89.4587 27.9442V38.5714H82.7891V17.096H89.1875V20.029H89.2779C90.1719 18.3415 92.3516 16.5636 95.596 16.5636C102.346 16.5636 103.602 21.0134 103.602 26.7991V38.5714Z" fill="black"/>
</g>
</svg>
